<svg xmlns="http://www.w3.org/2000/svg" xmlns:xlink="http://www.w3.org/1999/xlink" width="500" zoomAndPan="magnify" viewBox="0 0 375 374.999991" height="500" preserveAspectRatio="xMidYMid meet" version="1.0"><defs><clipPath id="fa7a0239fb"><path d="M 187.5 0 C 83.945312 0 0 83.945312 0 187.5 C 0 291.054688 83.945312 375 187.5 375 C 291.054688 375 375 291.054688 375 187.5 C 375 83.945312 291.054688 0 187.5 0 Z M 187.5 0 " clip-rule="nonzero"/></clipPath><clipPath id="3431163cf2"><path d="M 0 0 L 375 0 L 375 375 L 0 375 Z M 0 0 " clip-rule="nonzero"/></clipPath><clipPath id="53ea4457b4"><path d="M 187.5 0 C 83.945312 0 0 83.945312 0 187.5 C 0 291.054688 83.945312 375 187.5 375 C 291.054688 375 375 291.054688 375 187.5 C 375 83.945312 291.054688 0 187.5 0 Z M 187.5 0 " clip-rule="nonzero"/></clipPath><clipPath id="aae2b9defe"><rect x="0" width="375" y="0" height="375"/></clipPath><clipPath id="6029b1b088"><path d="M 13.523438 13.523438 L 361.476562 13.523438 L 361.476562 361.476562 L 13.523438 361.476562 Z M 13.523438 13.523438 " clip-rule="nonzero"/></clipPath><clipPath id="46bd09d27b"><path d="M 187.5 13.523438 C 91.414062 13.523438 13.523438 91.414062 13.523438 187.5 C 13.523438 283.585938 91.414062 361.476562 187.5 361.476562 C 283.585938 361.476562 361.476562 283.585938 361.476562 187.5 C 361.476562 91.414062 283.585938 13.523438 187.5 13.523438 Z M 187.5 13.523438 " clip-rule="nonzero"/></clipPath><clipPath id="8240f36083"><path d="M 0.523438 0.523438 L 348.476562 0.523438 L 348.476562 348.476562 L 0.523438 348.476562 Z M 0.523438 0.523438 " clip-rule="nonzero"/></clipPath><clipPath id="e7ac773491"><path d="M 174.5 0.523438 C 78.414062 0.523438 0.523438 78.414062 0.523438 174.5 C 0.523438 270.585938 78.414062 348.476562 174.5 348.476562 C 270.585938 348.476562 348.476562 270.585938 348.476562 174.5 C 348.476562 78.414062 270.585938 0.523438 174.5 0.523438 Z M 174.5 0.523438 " clip-rule="nonzero"/></clipPath><clipPath id="04a6f47d88"><rect x="0" width="349" y="0" height="349"/></clipPath><clipPath id="6260170329"><path d="M 41.386719 41.386719 L 333.613281 41.386719 L 333.613281 333.613281 L 41.386719 333.613281 Z M 41.386719 41.386719 " clip-rule="nonzero"/></clipPath><clipPath id="cd10010f1c"><path d="M 187.5 41.386719 C 106.804688 41.386719 41.386719 106.804688 41.386719 187.5 C 41.386719 268.195312 106.804688 333.613281 187.5 333.613281 C 268.195312 333.613281 333.613281 268.195312 333.613281 187.5 C 333.613281 106.804688 268.195312 41.386719 187.5 41.386719 Z M 187.5 41.386719 " clip-rule="nonzero"/></clipPath><clipPath id="782005e1d7"><path d="M 0.386719 0.386719 L 292.613281 0.386719 L 292.613281 292.613281 L 0.386719 292.613281 Z M 0.386719 0.386719 " clip-rule="nonzero"/></clipPath><clipPath id="11cec1e192"><path d="M 146.5 0.386719 C 65.804688 0.386719 0.386719 65.804688 0.386719 146.5 C 0.386719 227.195312 65.804688 292.613281 146.5 292.613281 C 227.195312 292.613281 292.613281 227.195312 292.613281 146.5 C 292.613281 65.804688 227.195312 0.386719 146.5 0.386719 Z M 146.5 0.386719 " clip-rule="nonzero"/></clipPath><clipPath id="6f5b317084"><rect x="0" width="293" y="0" height="293"/></clipPath></defs><g clip-path="url(#fa7a0239fb)"><g transform="matrix(1, 0, 0, 1, 0, 0)"><g clip-path="url(#aae2b9defe)"><g clip-path="url(#3431163cf2)"><g clip-path="url(#53ea4457b4)"><rect x="-82.5" width="540" fill="#ffffff" height="539.999987" y="-82.499998" fill-opacity="1"/></g></g></g></g></g><g clip-path="url(#6029b1b088)"><g clip-path="url(#46bd09d27b)"><g transform="matrix(1, 0, 0, 1, 13, 13)"><g clip-path="url(#04a6f47d88)"><g clip-path="url(#8240f36083)"><g clip-path="url(#e7ac773491)"><path fill="#ff3131" d="M 0.523438 0.523438 L 348.476562 0.523438 L 348.476562 348.476562 L 0.523438 348.476562 Z M 0.523438 0.523438 " fill-opacity="1" fill-rule="nonzero"/></g></g></g></g></g></g><g clip-path="url(#6260170329)"><g clip-path="url(#cd10010f1c)"><g transform="matrix(1, 0, 0, 1, 41, 41)"><g clip-path="url(#6f5b317084)"><g clip-path="url(#782005e1d7)"><g clip-path="url(#11cec1e192)"><path fill="#ffffff" d="M 0.386719 0.386719 L 292.613281 0.386719 L 292.613281 292.613281 L 0.386719 292.613281 Z M 0.386719 0.386719 " fill-opacity="1" fill-rule="nonzero"/></g></g></g></g></g></g></svg>