<svg xmlns="http://www.w3.org/2000/svg" xmlns:xlink="http://www.w3.org/1999/xlink" width="500" zoomAndPan="magnify" viewBox="0 0 375 374.999991" height="500" preserveAspectRatio="xMidYMid meet" version="1.0"><defs><clipPath id="0b50d90195"><path d="M 187.5 0 C 83.945312 0 0 83.945312 0 187.5 C 0 291.054688 83.945312 375 187.5 375 C 291.054688 375 375 291.054688 375 187.5 C 375 83.945312 291.054688 0 187.5 0 Z M 187.5 0 " clip-rule="nonzero"/></clipPath><clipPath id="2a686c8734"><path d="M 0 0 L 375 0 L 375 375 L 0 375 Z M 0 0 " clip-rule="nonzero"/></clipPath><clipPath id="8c223d7e54"><path d="M 187.5 0 C 83.945312 0 0 83.945312 0 187.5 C 0 291.054688 83.945312 375 187.5 375 C 291.054688 375 375 291.054688 375 187.5 C 375 83.945312 291.054688 0 187.5 0 Z M 187.5 0 " clip-rule="nonzero"/></clipPath><clipPath id="cd3e540fe6"><rect x="0" width="375" y="0" height="375"/></clipPath><clipPath id="91c1c62393"><path d="M 13.523438 13.523438 L 361.476562 13.523438 L 361.476562 361.476562 L 13.523438 361.476562 Z M 13.523438 13.523438 " clip-rule="nonzero"/></clipPath><clipPath id="4b4d9b9f2d"><path d="M 187.5 13.523438 C 91.414062 13.523438 13.523438 91.414062 13.523438 187.5 C 13.523438 283.585938 91.414062 361.476562 187.5 361.476562 C 283.585938 361.476562 361.476562 283.585938 361.476562 187.5 C 361.476562 91.414062 283.585938 13.523438 187.5 13.523438 Z M 187.5 13.523438 " clip-rule="nonzero"/></clipPath><clipPath id="24e80cb05d"><path d="M 0.523438 0.523438 L 348.476562 0.523438 L 348.476562 348.476562 L 0.523438 348.476562 Z M 0.523438 0.523438 " clip-rule="nonzero"/></clipPath><clipPath id="a28d934c2a"><path d="M 174.5 0.523438 C 78.414062 0.523438 0.523438 78.414062 0.523438 174.5 C 0.523438 270.585938 78.414062 348.476562 174.5 348.476562 C 270.585938 348.476562 348.476562 270.585938 348.476562 174.5 C 348.476562 78.414062 270.585938 0.523438 174.5 0.523438 Z M 174.5 0.523438 " clip-rule="nonzero"/></clipPath><clipPath id="984c2b2400"><rect x="0" width="349" y="0" height="349"/></clipPath><clipPath id="c8edd2915f"><path d="M 21.796875 21.796875 L 353.203125 21.796875 L 353.203125 353.199219 L 21.796875 353.199219 Z M 21.796875 21.796875 " clip-rule="nonzero"/></clipPath><clipPath id="76467dfaea"><path d="M 187.5 21.796875 C 95.984375 21.796875 21.796875 95.984375 21.796875 187.5 C 21.796875 279.015625 95.984375 353.199219 187.5 353.199219 C 279.015625 353.199219 353.203125 279.015625 353.203125 187.5 C 353.203125 95.984375 279.015625 21.796875 187.5 21.796875 Z M 187.5 21.796875 " clip-rule="nonzero"/></clipPath><clipPath id="31430ffce1"><path d="M 0.796875 0.796875 L 332.203125 0.796875 L 332.203125 332.199219 L 0.796875 332.199219 Z M 0.796875 0.796875 " clip-rule="nonzero"/></clipPath><clipPath id="a5772d600e"><path d="M 166.5 0.796875 C 74.984375 0.796875 0.796875 74.984375 0.796875 166.5 C 0.796875 258.015625 74.984375 332.199219 166.5 332.199219 C 258.015625 332.199219 332.203125 258.015625 332.203125 166.5 C 332.203125 74.984375 258.015625 0.796875 166.5 0.796875 Z M 166.5 0.796875 " clip-rule="nonzero"/></clipPath><clipPath id="05bb8bdaf9"><rect x="0" width="333" y="0" height="333"/></clipPath></defs><g clip-path="url(#0b50d90195)"><g transform="matrix(1, 0, 0, 1, 0, 0)"><g clip-path="url(#cd3e540fe6)"><g clip-path="url(#2a686c8734)"><g clip-path="url(#8c223d7e54)"><rect x="-82.5" width="540" fill="#ffffff" height="539.999987" y="-82.499998" fill-opacity="1"/></g></g></g></g></g><g clip-path="url(#91c1c62393)"><g clip-path="url(#4b4d9b9f2d)"><g transform="matrix(1, 0, 0, 1, 13, 13)"><g clip-path="url(#984c2b2400)"><g clip-path="url(#24e80cb05d)"><g clip-path="url(#a28d934c2a)"><path fill="#ff3131" d="M 0.523438 0.523438 L 348.476562 0.523438 L 348.476562 348.476562 L 0.523438 348.476562 Z M 0.523438 0.523438 " fill-opacity="1" fill-rule="nonzero"/></g></g></g></g></g></g><g clip-path="url(#c8edd2915f)"><g clip-path="url(#76467dfaea)"><g transform="matrix(1, 0, 0, 1, 21, 21)"><g clip-path="url(#05bb8bdaf9)"><g clip-path="url(#31430ffce1)"><g clip-path="url(#a5772d600e)"><path fill="#ffffff" d="M 0.796875 0.796875 L 332.203125 0.796875 L 332.203125 332.203125 L 0.796875 332.203125 Z M 0.796875 0.796875 " fill-opacity="1" fill-rule="nonzero"/></g></g></g></g></g></g></svg>